<?xml version="1.0" standalone="no"?>
<!DOCTYPE svg PUBLIC "-//W3C//DTD SVG 20010904//EN"
 "http://www.w3.org/TR/2001/REC-SVG-20010904/DTD/svg10.dtd">
<svg version="1.0" xmlns="http://www.w3.org/2000/svg"
 width="1280.000000pt" height="640.000000pt" viewBox="0 0 1280.000000 640.000000"
 preserveAspectRatio="xMidYMid meet">
<g transform="translate(0.000000,640.000000) scale(0.100000,-0.100000)"
fill="#000000" stroke="none">
<path d="M1498 5530 c-28 -4 -57 -14 -70 -27 -25 -23 -86 -43 -131 -43 -18 0
-37 -10 -53 -27 -14 -16 -33 -36 -41 -45 -9 -10 -29 -18 -43 -18 -30 0 -71
-50 -84 -102 -3 -15 -22 -43 -40 -62 -31 -31 -35 -40 -37 -97 -2 -53 0 -65 14
-67 23 -5 22 -25 -2 -46 -29 -26 -40 -84 -44 -223 -1 -46 3 -67 16 -81 19 -20
22 -48 8 -57 -6 -3 -4 -17 5 -33 7 -15 14 -37 14 -48 0 -12 7 -25 16 -28 12
-5 15 -14 11 -36 -4 -16 -2 -32 3 -35 6 -3 10 -16 10 -28 0 -36 59 -67 128
-67 51 0 65 4 98 31 43 34 74 34 122 1 15 -11 42 -24 60 -30 19 -6 55 -27 80
-46 26 -18 66 -37 89 -41 23 -3 66 -21 95 -39 29 -18 88 -53 130 -79 42 -26
84 -47 92 -47 9 0 25 15 36 33 17 28 26 33 72 37 46 4 53 8 56 28 5 33 29 38
56 13 28 -26 46 -26 91 0 35 21 38 21 71 5 50 -23 91 -21 108 7 7 12 26 55 41
95 28 74 54 102 73 79 6 -7 11 -61 10 -127 0 -87 6 -145 25 -238 l26 -124 -29
-149 c-17 -83 -30 -159 -30 -170 0 -10 -11 -65 -24 -122 -14 -56 -29 -145 -35
-197 -6 -52 -26 -151 -45 -220 -19 -69 -42 -170 -51 -225 -10 -55 -21 -116
-27 -135 -14 -54 -31 -699 -24 -935 6 -201 5 -212 -15 -250 -12 -22 -26 -43
-31 -46 -11 -7 -133 -24 -269 -38 -120 -12 -251 -42 -399 -93 -63 -22 -135
-43 -160 -48 -25 -4 -59 -14 -77 -21 -26 -11 -46 -10 -130 6 -54 10 -111 26
-128 36 -54 31 -162 52 -242 47 -62 -4 -80 -10 -117 -37 -25 -17 -51 -31 -59
-31 -9 0 -17 -14 -22 -37 -6 -31 -3 -39 16 -54 26 -20 112 -45 186 -55 58 -7
77 -21 63 -44 -8 -13 -76 -15 -485 -12 l-475 3 0 -59 0 -60 242 -6 c134 -3
806 -10 1493 -16 1181 -10 1852 -16 4340 -40 578 -5 1556 -15 2175 -20 619 -6
1584 -14 2145 -20 561 -5 1332 -12 1713 -16 l693 -6 -3 58 -3 59 -165 6 c-91
3 -310 7 -486 8 -248 1 -324 4 -332 14 -6 7 -12 39 -14 72 l-3 59 -85 23 c-75
21 -118 25 -360 33 -151 5 -364 9 -472 10 -117 0 -199 4 -203 10 -3 5 1 30 10
55 8 25 15 62 15 81 0 19 4 44 10 54 20 37 40 137 56 270 17 151 41 248 73
300 28 46 71 182 71 226 0 20 -8 49 -17 65 -25 41 -142 99 -305 149 -109 34
-144 50 -173 77 -19 18 -40 33 -46 33 -26 0 -239 111 -294 154 -33 25 -73 56
-90 68 -61 46 -163 136 -280 247 -145 136 -192 173 -350 267 -227 135 -350
185 -496 204 -46 5 -113 20 -147 31 -72 24 -256 116 -348 175 -34 21 -106 67
-160 101 -106 67 -314 244 -314 268 0 24 39 42 145 69 205 52 281 73 303 85
13 7 74 16 135 21 91 7 133 16 223 48 61 22 143 47 183 56 39 9 88 23 109 31
20 8 71 24 112 35 41 10 116 33 165 50 50 17 119 35 155 41 86 13 140 24 225
44 144 35 182 44 251 59 39 9 127 32 195 52 338 98 389 108 644 126 186 13
215 13 720 4 240 -5 413 -12 470 -21 50 -8 146 -15 214 -17 109 -2 125 0 136
16 9 12 11 26 5 40 -4 12 -6 33 -3 47 3 20 -3 28 -45 52 -28 15 -64 27 -81 27
-26 0 -31 4 -31 23 0 29 -53 81 -145 142 -95 64 -121 76 -270 125 -153 50
-198 71 -245 116 -116 109 -216 174 -268 174 -41 0 -107 -40 -204 -123 -104
-88 -122 -99 -211 -128 -119 -38 -253 -44 -577 -25 -310 17 -722 15 -850 -5
-70 -11 -98 -20 -345 -103 -188 -64 -241 -72 -520 -86 -115 -5 -233 -13 -260
-16 -47 -5 -305 29 -423 56 -62 15 -331 12 -527 -5 -261 -22 -385 -20 -469 10
-37 13 -85 35 -105 48 -20 13 -54 30 -76 37 -22 7 -51 19 -65 28 -14 9 -43 19
-65 23 -22 4 -69 15 -105 25 -88 24 -322 23 -435 -1 -89 -19 -213 -73 -294
-128 -30 -21 -65 -40 -80 -43 -14 -3 -39 -10 -56 -15 -91 -30 -200 -39 -365
-28 -151 9 -174 13 -275 48 -61 21 -142 58 -180 81 -115 71 -229 123 -410 186
-199 70 -261 84 -378 84 -81 0 -137 7 -220 26 -161 37 -290 41 -461 15 -135
-21 -215 -40 -265 -64 -27 -13 -122 -103 -188 -179 l-42 -48 -133 0 c-152 0
-230 15 -280 53 -19 15 -38 27 -41 27 -4 0 -62 37 -129 83 -68 46 -152 100
-188 121 -36 21 -74 46 -86 57 -12 11 -40 21 -68 23 -26 3 -54 10 -62 17 -15
12 -176 18 -256 9z m2429 -1651 c91 -49 91 -49 260 -68 333 -38 464 -45 617
-31 96 9 213 10 366 6 153 -5 254 -4 315 4 50 7 151 12 225 11 149 -1 241 -20
333 -69 50 -26 57 -27 212 -27 177 0 170 2 267 -77 84 -69 302 -158 563 -229
61 -16 169 -49 240 -73 72 -24 166 -52 210 -61 44 -10 112 -28 150 -42 39 -13
91 -31 118 -39 26 -8 96 -42 155 -75 110 -61 134 -70 237 -88 184 -32 265 -54
359 -98 166 -76 256 -121 346 -175 116 -69 355 -188 470 -232 95 -37 133 -56
330 -158 156 -81 250 -146 369 -253 91 -81 110 -104 178 -205 39 -59 56 -98
78 -180 16 -58 47 -143 68 -190 69 -147 53 -212 -59 -245 -28 -8 -75 -15 -103
-15 -35 0 -54 -5 -63 -16 -7 -9 -28 -32 -46 -51 -68 -68 -3 -64 -955 -62
-2245 5 -2778 7 -3252 13 -280 3 -928 9 -1440 12 -1140 7 -1651 14 -1689 23
-22 5 -34 17 -47 48 l-17 41 36 58 c21 33 51 78 69 102 32 44 45 81 104 292
17 63 60 183 95 266 78 186 107 314 123 549 7 94 19 199 27 235 9 36 19 99 23
140 6 55 19 101 50 169 23 52 58 155 77 230 19 74 42 146 50 159 34 52 96 237
101 305 3 38 12 74 19 82 7 7 43 16 80 20 36 4 101 17 143 30 42 13 85 21 96
18 11 -3 61 -27 112 -54z"/>
</g>
</svg>
